<?xml version="1.0" encoding="UTF-8" standalone="no"?>
<svg
   width="15.4883"
   height="16.668699"
   viewBox="0 0 15.4883 16.668699"
   fill="none"
   version="1.1"
   id="svg9"
   sodipodi:docname="Ouispad-Logo.svg"
   xmlns:inkscape="http://www.inkscape.org/namespaces/inkscape"
   xmlns:sodipodi="http://sodipodi.sourceforge.net/DTD/sodipodi-0.dtd"
   xmlns="http://www.w3.org/2000/svg"
   xmlns:svg="http://www.w3.org/2000/svg">
  <path
     d="m 15.4883,8.33437 c 0,1.78513 -0.3433,3.29833 -1.0299,4.53953 -0.6866,1.2412 -1.6162,2.1839 -2.7887,2.8283 -1.1672,0.6444 -2.47707,0.9665 -3.92951,0.9665 -1.45773,0 -2.7702,-0.3248 -3.93744,-0.9744 C 2.63552,15.0446 1.7086,14.1019 1.02199,12.866 0.340663,11.6248 0,10.1143 0,8.33437 0,6.54918 0.340663,5.03601 1.02199,3.79483 1.7086,2.55365 2.63552,1.61089 3.80275,0.966533 4.96999,0.322178 6.28246,0 7.74019,0 c 1.45244,0 2.76231,0.322178 3.92951,0.966533 1.1725,0.644357 2.1021,1.587117 2.7887,2.828297 0.6866,1.24118 1.0299,2.75435 1.0299,4.53954 z m -4.0087,0 C 11.4796,7.27805 11.329,6.38546 11.028,5.65659 10.7322,4.92773 10.3044,4.37581 9.74455,4.00081 9.18999,3.62582 8.52186,3.43832 7.74019,3.43832 c -0.7764,0 -1.44452,0.1875 -2.00437,0.56249 -0.55985,0.375 -0.9903,0.92692 -1.29135,1.65578 -0.29577,0.72887 -0.44366,1.62146 -0.44366,2.67778 0,1.05632 0.14789,1.94893 0.44366,2.67773 0.30105,0.7289 0.7315,1.2808 1.29135,1.6558 0.55985,0.375 1.22797,0.5625 2.00437,0.5625 0.78167,0 1.4498,-0.1875 2.00436,-0.5625 0.55985,-0.375 0.98765,-0.9269 1.28345,-1.6558 0.301,-0.7288 0.4516,-1.62141 0.4516,-2.67773 z"
     fill="#163d6a"
     id="path5" />
  <defs
     id="defs9" />
  <sodipodi:namedview
     id="namedview9"
     pagecolor="#ffffff"
     bordercolor="#000000"
     borderopacity="0.25"
     inkscape:showpageshadow="2"
     inkscape:pageopacity="0.0"
     inkscape:pagecheckerboard="0"
     inkscape:deskcolor="#d1d1d1"
     inkscape:export-bgcolor="#ffffff00" />
</svg>
