<svg width="544" height="544" viewBox="0 0 544 544" fill="none" xmlns="http://www.w3.org/2000/svg">
<path d="M271.802 -0.399902C422.133 -0.399902 544.002 121.468 544.002 271.8C544.002 422.132 422.133 544 271.802 544C121.47 544 -0.398438 422.132 -0.398438 271.8C-0.398438 121.468 121.47 -0.399902 271.802 -0.399902ZM193.087 124.667C174.708 124.732 158.284 127.755 143.776 133.673L140.901 134.9C125.684 141.632 113.829 150.901 105.234 162.679L105.239 162.684C96.7947 174.378 92.6057 188.054 92.7484 203.844V203.878C92.7327 223.117 99.1376 238.099 111.779 249.184L114.255 251.271C126.09 260.867 141.63 268.24 161.006 273.289L165.215 274.335L165.24 274.34L195.077 281.639C205.189 284.011 213.817 286.678 220.91 289.653C228.155 292.655 233.896 296.399 237.901 301.005L238.675 301.915C242.397 306.517 244.223 312.082 244.246 318.425L244.227 319.772C244.004 326.014 242.062 331.682 238.412 336.691L237.604 337.757C233.189 343.326 227.023 347.571 219.304 350.583C212.108 353.423 203.807 354.909 194.464 355.113L192.581 355.133C182.267 355.169 172.894 353.658 164.52 350.529L164.481 350.51C156.141 347.265 149.346 342.422 144.209 335.956L144.18 335.912C143.225 334.669 142.345 333.364 141.543 332.005L140.764 330.628C136.09 321.905 125.083 314.254 120.732 313.403L114.192 312.26L103.346 311.754C93.6055 311.79 86.3358 322.496 88.1745 331.047L88.6124 332.998C90.9176 342.665 94.667 351.211 99.833 358.67L101.531 360.991C110.228 372.405 121.947 381.142 136.784 387.174C152.749 393.626 171.607 396.862 193.408 396.784L197.199 396.74C205.964 396.554 214.18 395.823 221.839 394.575L225.581 393.967V411.581H277.081V368.387L277.933 367.472C280.206 365.031 282.288 362.453 284.156 359.74L285.616 357.536C292.666 346.412 296.249 333.402 296.282 318.4L296.238 316.366C295.893 306.298 293.854 297.426 290.19 289.702L290.175 289.682C286.56 281.894 281.572 275.071 275.193 269.207L273.899 268.044C267.278 262.258 259.489 257.302 250.518 253.198L248.708 252.39C238.919 248.112 228.133 244.682 216.355 242.118L216.312 242.109L191.666 236.377C185.59 235.053 179.849 233.454 174.46 231.579L174.417 231.564C168.967 229.577 164.101 227.243 159.853 224.558L159.809 224.533C155.455 221.685 151.943 218.253 149.343 214.232L149.309 214.189C147.017 210.502 145.846 206.31 145.708 201.717V199.839C145.685 193.361 147.568 187.486 151.353 182.327L151.372 182.298L152.126 181.344C155.95 176.664 161.186 173.068 167.673 170.488L169.001 169.968C175.727 167.449 183.705 166.224 192.834 166.192L195.491 166.221C207.761 166.512 218.053 169.156 226.131 174.391L227.824 175.549L227.98 175.661L228.116 175.787L236.15 183.164L236.369 183.363L236.539 183.602L398.542 401.679L398.683 401.572L406.006 411.581H448.368V156.655L448.334 155.351C447.669 142.404 437.168 132.022 424.073 131.362L422.75 131.328C408.604 131.33 397.137 142.669 397.136 156.655V316.882L279.962 162.8L279.908 162.737L279.859 162.664L279.417 161.998C271.268 150.302 259.851 141.125 245.044 134.51C231.277 128.324 215.211 125.026 196.8 124.696L193.087 124.667Z" fill="#1393EE"/>
</svg>
