<?xml version="1.0" standalone="no"?>
<svg viewBox="0 0 200 200" xmlns="http://www.w3.org/2000/svg">
  <path fill="#f87537" d="M42.7,-75.5C53.1,-68,57.7,-52,64.3,-38C71,-24,79.7,-12,73.2,-3.8C66.6,4.4,44.9,8.9,35.8,18.8C26.8,28.6,30.5,43.9,26.6,51.9C22.8,59.9,11.4,60.6,-1.9,63.9C-15.3,67.3,-30.5,73.3,-34.3,65.3C-38.1,57.2,-30.4,35.2,-37.1,22C-43.8,8.7,-65,4.4,-71.9,-4C-78.8,-12.3,-71.4,-24.7,-60.5,-30.6C-49.6,-36.5,-35.1,-36.1,-24.4,-43.5C-13.7,-50.9,-6.9,-66.1,4.7,-74.1C16.2,-82.2,32.3,-83.1,42.7,-75.5Z" transform="translate(100 100)" />
</svg>
