<!--?xml version="1.0" standalone="no"?-->
              <svg id="sw-js-blob-svg" viewBox="0 0 100 100" xmlns="http://www.w3.org/2000/svg" version="1.1">
                    <defs> 
                        <linearGradient id="sw-gradient" x1="0" x2="1" y1="1" y2="0">
                            <stop id="stop1" stop-color="rgba(13.09, 42.045, 70.319, 1)" offset="0%"></stop>
                            <stop id="stop2" stop-color="rgba(34.086, 75.323, 120.409, 1)" offset="100%"></stop>
                        </linearGradient>
                    </defs>
                <path fill="url(#sw-gradient)" d="M19.9,-38.3C23.5,-32.5,22.3,-22.4,25.2,-15.3C28,-8.1,34.8,-4.1,36.3,0.8C37.7,5.7,33.8,11.5,29.9,16.8C26,22.1,22.2,26.9,17.2,29C12.2,31,6.1,30.3,0.5,29.4C-5.1,28.6,-10.3,27.7,-14.5,25.2C-18.7,22.7,-22,18.6,-27.3,14.2C-32.7,9.7,-40.1,4.9,-42.9,-1.6C-45.6,-8.1,-43.8,-16.2,-37.7,-19.3C-31.6,-22.5,-21.3,-20.8,-14.3,-24.6C-7.3,-28.4,-3.7,-37.7,2.3,-41.6C8.2,-45.6,16.4,-44.1,19.9,-38.3Z" width="100%" height="100%" transform="translate(50 50)" stroke-width="0" style="transition: 0.3s;"></path>
              </svg>