<?xml version="1.0" standalone="no"?>
<svg viewBox="0 0 200 200" xmlns="http://www.w3.org/2000/svg">
  <path fill="#D0E2FF" d="M30.5,-42C43.9,-45,62.3,-45.8,65.5,-38.4C68.7,-31.1,56.7,-15.5,52.6,-2.4C48.5,10.8,52.2,21.5,49.8,30.2C47.3,38.9,38.6,45.4,29.3,45C20,44.6,10,37.3,1.4,34.9C-7.2,32.5,-14.4,35,-24.6,35.8C-34.7,36.7,-47.9,36,-51.9,29.7C-55.9,23.5,-50.9,11.7,-50.8,0.1C-50.7,-11.6,-55.6,-23.3,-55.2,-35.9C-54.9,-48.5,-49.3,-62.2,-39.3,-61.1C-29.2,-60,-14.6,-44.1,-3,-38.9C8.5,-33.6,17,-38.9,30.5,-42Z" transform="translate(100 100)" />
</svg>
