<svg xmlns="http://www.w3.org/2000/svg" width="90.944" height="16.669" fill="none" xmlns:v="https://vecta.io/nano"><g fill="#163d6a"><path d="M41.472 4.598c-.114-.352-.316-.641-.608-.866-.412-.327-1.001-.491-1.767-.491-.507 0-.93.066-1.268.198s-.592.314-.761.547a1.32 1.32 0 0 0-.261.784c-.011.243.037.457.143.642a1.61 1.61 0 0 0 .475.491c.211.137.465.259.761.364s.629.198.998.277l1.394.317c.803.174 1.511.407 2.123.697.618.29 1.136.636 1.553 1.038.423.401.742.864.959 1.386s.327 1.109.333 1.759c-.005 1.025-.264 1.904-.776 2.638s-1.249 1.297-2.21 1.687c-.956.391-2.11.586-3.462.586-1.357 0-2.541-.203-3.549-.61s-1.793-1.025-2.353-1.854-.848-1.878-.864-3.145h3.329c.235 0 .434.192.479.423.067.34.189.635.367.885.248.349.589.613 1.022.792.438.18.945.269 1.521.269.528 0 .977-.071 1.347-.214.375-.143.663-.341.864-.594a1.4 1.4 0 0 0 .309-.871 1.2 1.2 0 0 0-.285-.784c-.185-.222-.47-.412-.856-.57-.38-.164-.866-.314-1.458-.452l-1.695-.396c-1.405-.322-2.511-.842-3.319-1.561-.808-.724-1.21-1.701-1.204-2.931-.005-1.004.264-1.883.808-2.638s1.297-1.344 2.258-1.767S37.875 0 39.105 0c1.257 0 2.348.214 3.272.642.93.423 1.651 1.017 2.163 1.783s.774 1.653.784 2.662h-3.256c-.276 0-.512-.227-.596-.489z"/><path d="M45.073 16.447V.222h6.702c1.215 0 2.263.238 3.145.713.887.47 1.571 1.128 2.052 1.973.481.84.721 1.817.721 2.931 0 1.12-.246 2.099-.737 2.939-.486.834-1.181 1.481-2.084 1.941s-1.975.689-3.217.689h-4.136v-3.09h3.407c.592 0 1.085-.103 1.481-.309a2.12 2.12 0 0 0 .911-.864c.206-.375.309-.811.309-1.307 0-.502-.103-.935-.309-1.299-.206-.37-.51-.655-.911-.856s-.895-.301-1.481-.301h-1.933v13.064zm13.648 0h-4.215L59.981.222h5.221l5.474 16.225h-4.215L62.651 4.31h-.127zm-.562-6.385h8.81v2.979h-8.81z"/><path d="M69.969.223v16.225h5.998c1.648 0 3.071-.322 4.27-.967s2.121-1.582 2.766-2.797a7.67 7.67 0 0 0 .65-1.686l-4.059.039-.039.094c-.322.697-.8 1.202-1.434 1.514-.629.306-1.396.459-2.305.459H73.89v-9.54h1.869c.93 0 1.712.157 2.346.469.639.306 1.122.807 1.449 1.504a4.06 4.06 0 0 1 .191.498l3.99-.039c-.162-.731-.407-1.402-.734-2.012a6.66 6.66 0 0 0-2.773-2.789c-1.194-.65-2.616-.973-4.27-.973zM15.488 8.334c0 1.785-.343 3.298-1.03 4.54s-1.616 2.184-2.789 2.828c-1.167.644-2.477.967-3.93.967-1.458 0-2.77-.325-3.937-.974s-2.094-1.592-2.781-2.828C.341 11.625 0 10.114 0 8.334s.341-3.298 1.022-4.54C1.709 2.553 2.636 1.61 3.803.966S6.282 0 7.74 0c1.452 0 2.762.322 3.93.967s2.102 1.587 2.789 2.828 1.03 2.754 1.03 4.54zm-4.009 0c0-1.056-.151-1.949-.452-2.678-.296-.729-.724-1.281-1.283-1.656s-1.223-.562-2.004-.562-1.445.188-2.004.562-.99.927-1.291 1.656-.444 1.621-.444 2.678.148 1.949.444 2.678.732 1.281 1.291 1.656 1.228.563 2.004.563c.782 0 1.45-.187 2.004-.562.56-.375.988-.927 1.283-1.656.301-.729.452-1.621.452-2.678z"/><path d="M25.14.222h3.789a.125.125 45 0 1 .125.125v10.341c0 1.21-.288 2.263-.863 3.161-.576.893-1.378 1.584-2.408 2.076-1.03.486-2.226.729-3.589.729-1.378 0-2.583-.243-3.613-.729-1.03-.491-1.83-1.183-2.401-2.076-.57-.898-.856-1.952-.856-3.161V.222h3.922v10.125c0 .56.122 1.059.364 1.497.248.438.594.782 1.038 1.03s.959.372 1.545.372 1.099-.124 1.537-.372c.444-.248.79-.591 1.038-1.03s.372-.937.372-1.497z"/><path d="M29.144.354l7.226 14.273-2.248 1.138a1.402 1.402 18.15 0 1-1.884-.618L25.543 1.923 28.839.254a.227.227 18.149 0 1 .305.1z"/></g><path d="M78.754 8.545h10.69m0 0L86.19 5.292m3.254 3.253l-3.254 3.253" stroke="#f1885c" stroke-width="3" stroke-linecap="round" stroke-linejoin="round"/></svg>