<svg width="91" height="17" viewBox="0 0 91 17" fill="none" xmlns="http://www.w3.org/2000/svg">
<path fill-rule="evenodd" clip-rule="evenodd" d="M14.4584 12.8739C14.8706 12.1287 15.1591 11.2855 15.3238 10.3442V10.6873C15.3238 11.8968 15.609 12.9505 16.1794 13.8484C16.7499 14.7409 17.55 15.4328 18.5799 15.924C19.6098 16.4099 20.8141 16.6529 22.1925 16.6529C23.5552 16.6529 24.7515 16.4099 25.7814 15.924C26.8113 15.4328 27.6141 14.7409 28.1898 13.8484C28.7655 12.9505 29.0533 11.8968 29.0533 10.6873V8.85804L32.8709 16.3988L34.5712 15.538C34.8694 15.7322 35.195 15.9005 35.5482 16.0429C36.557 16.4495 37.7401 16.6529 39.0975 16.6529C40.4495 16.6529 41.6036 16.4575 42.5595 16.0666C43.5208 15.6758 44.2576 15.1133 44.7699 14.3792C44.8833 14.2166 44.9843 14.047 45.0728 13.8703V16.4469H48.9944V11.4083H51.6564C52.8975 11.4083 53.9697 11.1785 54.8729 10.719C55.776 10.2595 56.4705 9.61251 56.9565 8.77802C57.4476 7.93824 57.6932 6.95851 57.6932 5.83881C57.6932 4.72439 57.4529 3.7473 56.9723 2.90752C56.4917 2.06246 55.8077 1.40491 54.9204 0.934844C54.0384 0.459499 52.99 0.221827 51.7752 0.221827H45.0728V3.51217C44.9444 3.12575 44.7668 2.76311 44.5401 2.42426C44.0278 1.65842 43.3069 1.06424 42.3773 0.641714C41.453 0.213905 40.3624 0 39.1054 0C37.8748 0 36.7788 0.211264 35.8176 0.633793C34.8563 1.05632 34.1037 1.64522 33.5597 2.40049C33.0157 3.15576 32.7463 4.03514 32.7516 5.03865C32.7463 6.26926 33.1477 7.24636 33.9558 7.96993C34.7639 8.68823 35.8704 9.20847 37.2753 9.53065L38.9707 9.92677C39.5622 10.0641 40.0481 10.2146 40.4284 10.3783C40.814 10.5368 41.0992 10.7269 41.284 10.9488C41.4689 11.1653 41.564 11.4267 41.5692 11.7331C41.564 12.0605 41.461 12.351 41.2603 12.6045C41.0596 12.8581 40.7717 13.0561 40.3967 13.1987C40.027 13.3413 39.5781 13.4126 39.0499 13.4126C38.4742 13.4126 37.9672 13.3228 37.5288 13.1433C37.0957 12.9637 36.7551 12.6996 36.5068 12.351C36.2586 12.0024 36.1186 11.5667 36.0869 11.0438H34.5554L29.0413 0.151795L28.9029 0.221827H25.1397V10.3467C25.1397 10.9065 25.0156 11.4056 24.7673 11.844C24.5191 12.2824 24.1731 12.6257 23.7295 12.8739C23.2911 13.1221 22.7788 13.2463 22.1925 13.2463C21.6063 13.2463 21.0913 13.1221 20.6477 12.8739C20.204 12.6257 19.8581 12.2824 19.6098 11.844C19.3669 11.4056 19.2454 10.9065 19.2454 10.3467V0.221827H15.3238V6.32452C15.1591 5.38324 14.8706 4.54001 14.4584 3.79483C13.7718 2.55365 12.8422 1.61089 11.6697 0.966533C10.5025 0.322178 9.19263 0 7.74019 0C6.28246 0 4.96999 0.322178 3.80275 0.966533C2.63552 1.61089 1.7086 2.55365 1.02199 3.79483C0.340663 5.03601 0 6.54918 0 8.33437C0 10.1143 0.340663 11.6248 1.02199 12.866C1.7086 14.1019 2.63552 15.0446 3.80275 15.6943C4.96999 16.3439 6.28246 16.6687 7.74019 16.6687C9.19263 16.6687 10.5025 16.3466 11.6697 15.7022C12.8422 15.0578 13.7718 14.1151 14.4584 12.8739ZM11.028 5.65659C11.329 6.38546 11.4796 7.27805 11.4796 8.33437C11.4796 9.39069 11.329 10.2833 11.028 11.0121C10.7322 11.741 10.3044 12.2929 9.74455 12.6679C9.18999 13.0429 8.52186 13.2304 7.74019 13.2304C6.96379 13.2304 6.29567 13.0429 5.73582 12.6679C5.17597 12.2929 4.74552 11.741 4.44447 11.0121C4.1487 10.2833 4.00081 9.39069 4.00081 8.33437C4.00081 7.27805 4.1487 6.38546 4.44447 5.65659C4.74552 4.92773 5.17597 4.37581 5.73582 4.00081C6.29567 3.62582 6.96379 3.43832 7.74019 3.43832C8.52186 3.43832 9.18999 3.62582 9.74455 4.00081C10.3044 4.37581 10.7322 4.92773 11.028 5.65659ZM41.5692 5.08618C41.5164 4.5052 41.2814 4.05363 40.8642 3.73145C40.4522 3.40399 39.8633 3.24026 39.0975 3.24026C38.5904 3.24026 38.1679 3.30628 37.8299 3.43832C37.4919 3.57036 37.2383 3.75258 37.0693 3.98497C36.9003 4.21208 36.8132 4.47352 36.8079 4.76929C36.7973 5.01224 36.8449 5.22614 36.9505 5.411C37.0614 5.59586 37.2198 5.75958 37.4258 5.90219C37.6371 6.03951 37.8906 6.16099 38.1864 6.26662C38.4822 6.37225 38.8149 6.46468 39.1846 6.5439L40.5789 6.8608C41.3817 7.03509 42.0895 7.26748 42.7022 7.55797C43.3201 7.84846 43.8377 8.1944 44.2549 8.59581C44.5938 8.91775 44.8665 9.27877 45.0728 9.67885V5.08618H41.5692ZM50.9275 8.31852H48.9944V3.38287H50.9275C51.5138 3.38287 52.0076 3.48322 52.409 3.68392C52.8104 3.88462 53.1141 4.16982 53.3201 4.53954C53.5261 4.90397 53.629 5.33706 53.629 5.83881C53.629 6.33528 53.5261 6.77101 53.3201 7.146C53.1141 7.51572 52.8104 7.80356 52.409 8.00955C52.0129 8.21553 51.519 8.31852 50.9275 8.31852ZM54.5064 16.4469H58.7211L59.7884 13.0403H65.3917L66.4613 16.4469H69.9688H70.676H75.9661C77.614 16.4469 79.0373 16.1247 80.2363 15.4804C81.4352 14.8307 82.3568 13.8985 83.0012 12.6838C83.2709 12.1795 83.4846 11.6342 83.6423 11.0481L79.5695 11.0993C79.5647 11.1099 79.5598 11.1205 79.5549 11.131C79.2328 11.8281 78.7548 12.3325 78.121 12.6442C77.4925 12.9505 76.724 13.1037 75.8156 13.1037H73.8904V3.56508H75.7601C76.6897 3.56508 77.4713 3.72089 78.1051 4.0325C78.7442 4.33883 79.2275 4.84059 79.5549 5.53776C79.6362 5.70936 79.7073 5.89558 79.7684 6.09643L83.7472 6.04634C83.7152 5.89814 83.6797 5.75241 83.641 5.60915C83.581 5.46225 83.5358 5.31137 83.5052 5.15857C83.3674 4.74524 83.1994 4.35404 83.0012 3.98497C82.3515 2.7702 81.4273 1.84064 80.2283 1.19628C79.0347 0.546646 77.6113 0.221827 75.9582 0.221827H69.9688V14.351L65.2016 0.221827H59.9807L54.5064 16.4469ZM64.4564 10.0614L62.6506 4.30979H62.5238L60.7218 10.0614H64.4564Z" fill="white"/>
<path d="M79 8.6063H89M89 8.6063L85.9565 4.66504M89 8.6063L85.9565 12.5476" stroke="#F1885C" stroke-width="3" stroke-linecap="round" stroke-linejoin="round"/>
</svg>
