<svg width="1707" height="565" viewBox="0 0 1707 565" fill="none" xmlns="http://www.w3.org/2000/svg">
<path d="M926.02 482.04C912.489 482.04 900.817 479.107 891.004 473.24C881.252 467.314 873.724 459.053 868.421 448.458C863.179 437.802 860.559 425.411 860.559 411.284C860.559 397.157 863.179 384.705 868.421 373.93C873.724 363.095 881.099 354.655 890.547 348.609C900.055 342.503 911.148 339.45 923.826 339.45C931.14 339.45 938.363 340.647 945.494 343.042C952.626 345.436 959.117 349.327 964.968 354.715C970.82 360.042 975.482 367.106 978.957 375.906C982.431 384.705 984.168 395.54 984.168 408.411V417.39H875.918V399.072H962.225C962.225 391.29 960.641 384.346 957.471 378.24C954.363 372.134 949.913 367.316 944.123 363.784C938.393 360.252 931.628 358.486 923.826 358.486C915.232 358.486 907.796 360.581 901.518 364.772C895.301 368.902 890.516 374.29 887.164 380.934C883.812 387.579 882.135 394.702 882.135 402.305V414.516C882.135 424.932 883.964 433.762 887.621 441.005C891.339 448.188 896.489 453.666 903.072 457.437C909.655 461.148 917.304 463.004 926.02 463.004C931.689 463.004 936.809 462.226 941.38 460.67C946.012 459.053 950.005 456.659 953.357 453.486C956.709 450.254 959.3 446.243 961.128 441.454L981.974 447.201C979.779 454.145 976.092 460.25 970.911 465.518C965.73 470.726 959.33 474.797 951.711 477.73C944.092 480.603 935.529 482.04 926.02 482.04Z" fill="white"/>
<path d="M1078.06 341.246V359.204H1005.29V341.246H1078.06ZM1026.5 308.203H1048.08V439.658C1048.08 445.644 1048.96 450.134 1050.73 453.127C1052.56 456.06 1054.87 458.036 1057.68 459.053C1060.54 460.011 1063.56 460.49 1066.73 460.49C1069.1 460.49 1071.05 460.37 1072.58 460.131C1074.1 459.831 1075.32 459.592 1076.23 459.412L1080.62 478.448C1079.16 478.987 1077.12 479.526 1074.5 480.065C1071.88 480.663 1068.56 480.963 1064.53 480.963C1058.44 480.963 1052.46 479.676 1046.61 477.101C1040.82 474.527 1036.01 470.606 1032.17 465.339C1028.39 460.071 1026.5 453.426 1026.5 445.405V308.203Z" fill="white"/>
<path d="M1142.34 479.167L1099.55 341.246H1122.22L1152.58 446.842H1154.04L1184.03 341.246H1207.07L1236.69 446.482H1238.15L1268.51 341.246H1291.18L1248.39 479.167H1227.18L1196.46 373.212H1194.27L1163.55 479.167H1142.34Z" fill="white"/>
<path d="M1371.98 482.04C1359.3 482.04 1348.18 479.077 1338.61 473.151C1329.1 467.224 1321.66 458.934 1316.3 448.278C1311 437.623 1308.35 425.172 1308.35 410.925C1308.35 396.558 1311 384.017 1316.3 373.302C1321.66 362.587 1329.1 354.266 1338.61 348.34C1348.18 342.413 1359.3 339.45 1371.98 339.45C1384.66 339.45 1395.75 342.413 1405.26 348.34C1414.83 354.266 1422.26 362.587 1427.57 373.302C1432.93 384.017 1435.61 396.558 1435.61 410.925C1435.61 425.172 1432.93 437.623 1427.57 448.278C1422.26 458.934 1414.83 467.224 1405.26 473.151C1395.75 479.077 1384.66 482.04 1371.98 482.04ZM1371.98 463.004C1381.61 463.004 1389.53 460.58 1395.75 455.731C1401.97 450.882 1406.57 444.507 1409.55 436.605C1412.54 428.704 1414.03 420.143 1414.03 410.925C1414.03 401.706 1412.54 393.116 1409.55 385.154C1406.57 377.193 1401.97 370.758 1395.75 365.849C1389.53 360.94 1381.61 358.486 1371.98 358.486C1362.35 358.486 1354.42 360.94 1348.21 365.849C1341.99 370.758 1337.39 377.193 1334.4 385.154C1331.42 393.116 1329.92 401.706 1329.92 410.925C1329.92 420.143 1331.42 428.704 1334.4 436.605C1337.39 444.507 1341.99 450.882 1348.21 455.731C1354.42 460.58 1362.35 463.004 1371.98 463.004Z" fill="white"/>
<path d="M1468.55 479.167V341.246H1489.39V362.078H1490.86C1493.42 355.254 1498.05 349.716 1504.75 345.466C1511.46 341.216 1519.02 339.091 1527.43 339.091C1529.01 339.091 1530.99 339.121 1533.37 339.181C1535.75 339.241 1537.55 339.33 1538.76 339.45V361C1538.03 360.821 1536.36 360.551 1533.74 360.192C1531.18 359.773 1528.46 359.564 1525.6 359.564C1518.77 359.564 1512.68 360.97 1507.31 363.784C1502.01 366.537 1497.8 370.369 1494.7 375.277C1491.65 380.126 1490.12 385.663 1490.12 391.889V479.167H1468.55Z" fill="white"/>
<path d="M1584.45 428.883L1584.09 402.664H1588.48L1649.92 341.246H1676.61L1611.15 406.255H1609.32L1584.45 428.883ZM1564.34 479.167V295.272H1585.92V479.167H1564.34ZM1653.57 479.167L1598.72 410.925L1614.08 396.199L1681 479.167H1653.57Z" fill="white"/>
<path d="M837.641 75.0205C843.172 75.0205 848.227 75.4515 852.799 76.3105C857.424 77.1692 860.866 77.9428 863.123 78.6299L856.693 106.118C855.283 105.66 853.531 105.229 851.443 104.828C849.412 104.427 847.321 104.229 845.177 104.229C839.874 104.23 836.179 105.489 834.091 108.007C832.003 110.469 830.957 113.937 830.957 118.403V127.256H856.863V154.745H830.957V159.259H831.166V488.708H798.264L700.789 348.254V488.708H663.953V281.564C672.401 283.999 681.858 285.218 692.326 285.218C694.752 285.218 697.117 285.152 699.421 285.025L794.707 422.161V159.259H794.975V154.745H776.604V127.256H794.975V117.72C794.975 108.155 796.81 100.218 800.479 93.918C804.203 87.6194 809.282 82.8928 815.715 79.7432C822.148 76.5936 829.458 75.0209 837.641 75.0205Z" fill="white"/>
<path d="M911.285 261.702C902.988 261.702 895.595 260.241 889.105 257.321C882.614 254.342 877.478 249.961 873.697 244.176C869.972 238.334 868.109 231.061 868.109 222.355C868.109 215.024 869.436 208.867 872.088 203.885C874.741 198.902 878.353 194.893 882.924 191.857C887.496 188.822 892.688 186.531 898.502 184.985C904.371 183.438 910.523 182.35 916.957 181.72C924.52 180.918 930.615 180.174 935.243 179.486C939.871 178.742 943.229 177.654 945.317 176.222C947.406 174.79 948.45 172.671 948.45 169.865V169.349C948.45 163.908 946.757 159.699 943.37 156.72C940.04 153.742 935.299 152.253 929.148 152.253C922.657 152.253 917.493 153.713 913.655 156.634C909.817 159.498 907.278 163.106 906.036 167.459L872.681 164.71C874.374 156.692 877.704 149.762 882.671 143.92C887.637 138.021 894.043 133.496 901.888 130.346C909.789 127.139 918.932 125.535 929.317 125.535C936.541 125.535 943.455 126.394 950.058 128.112C956.718 129.831 962.616 132.494 967.752 136.102C972.944 139.71 977.036 144.349 980.027 150.019C983.018 155.632 984.514 162.362 984.514 170.208V259.211H950.312V240.912H949.296C947.208 245.035 944.414 248.672 940.915 251.822C937.416 254.915 933.211 257.349 928.301 259.125C923.391 260.843 917.719 261.702 911.285 261.702ZM921.613 236.444C926.918 236.444 931.603 235.385 935.666 233.266C939.73 231.089 942.919 228.169 945.233 224.503C947.547 220.838 948.704 216.685 948.704 212.046V198.043C947.575 198.787 946.023 199.475 944.047 200.105C942.129 200.677 939.956 201.222 937.529 201.737C935.102 202.195 932.675 202.625 930.248 203.026C927.821 203.369 925.62 203.684 923.645 203.971C919.412 204.601 915.715 205.603 912.555 206.977C909.394 208.352 906.939 210.213 905.19 212.562C903.44 214.853 902.565 217.716 902.565 221.153C902.565 226.135 904.343 229.944 907.899 232.579C911.511 235.156 916.082 236.444 921.613 236.444Z" fill="white"/>
<path d="M1045.17 221.238L1045.26 177.339H1050.5L1092.16 127.253H1133.55L1077.6 193.576H1069.04L1045.17 221.238ZM1012.49 259.211V83.2676H1048.56V259.211H1012.49ZM1093.76 259.211L1055.5 201.737L1079.54 175.878L1136.01 259.211H1093.76Z" fill="white"/>
<path d="M1205.15 261.788C1191.78 261.788 1180.26 259.039 1170.61 253.54C1161.02 247.985 1153.62 240.139 1148.43 230.001C1143.24 219.807 1140.64 207.751 1140.64 193.833C1140.64 180.26 1143.24 168.347 1148.43 158.095C1153.62 147.843 1160.93 139.853 1170.36 134.126C1179.84 128.399 1190.96 125.535 1203.71 125.535C1212.29 125.535 1220.28 126.938 1227.67 129.745C1235.12 132.494 1241.61 136.646 1247.14 142.202C1252.73 147.757 1257.08 154.744 1260.18 163.164C1263.29 171.525 1264.84 181.319 1264.84 192.545V202.596H1155.04V179.916H1230.89C1230.89 174.647 1229.76 169.979 1227.5 165.913C1225.25 161.846 1222.11 158.668 1218.11 156.377C1214.16 154.028 1209.56 152.854 1204.31 152.854C1198.83 152.854 1193.98 154.143 1189.75 156.72C1185.57 159.24 1182.3 162.648 1179.93 166.944C1177.55 171.182 1176.34 175.907 1176.28 181.119V202.682C1176.28 209.211 1177.47 214.853 1179.84 219.606C1182.27 224.36 1185.68 228.025 1190.08 230.603C1194.49 233.18 1199.71 234.469 1205.75 234.469C1209.75 234.469 1213.42 233.896 1216.75 232.75C1220.08 231.605 1222.93 229.887 1225.3 227.596C1227.67 225.305 1229.48 222.498 1230.72 219.177L1264.08 221.41C1262.38 229.543 1258.91 236.645 1253.66 242.716C1248.47 248.73 1241.75 253.426 1233.51 256.805C1225.33 260.127 1215.88 261.788 1205.15 261.788Z" fill="white"/>
<path d="M1396.56 164.882L1363.55 166.944C1362.98 164.08 1361.77 161.503 1359.91 159.212C1358.05 156.864 1355.59 155.002 1352.54 153.628C1349.55 152.196 1345.97 151.48 1341.79 151.48C1336.2 151.48 1331.49 152.683 1327.65 155.088C1323.82 157.436 1321.9 160.586 1321.9 164.538C1321.9 167.688 1323.14 170.351 1325.62 172.528C1328.1 174.704 1332.37 176.451 1338.4 177.768L1361.94 182.579C1374.58 185.214 1384.01 189.452 1390.22 195.294C1396.42 201.136 1399.53 208.81 1399.53 218.318C1399.53 226.966 1397.02 234.554 1391.99 241.084C1387.03 247.613 1380.2 252.71 1371.51 256.376C1362.87 259.984 1352.91 261.788 1341.62 261.788C1324.41 261.788 1310.69 258.151 1300.48 250.877C1290.32 243.546 1284.36 233.581 1282.62 220.981L1318.09 219.091C1319.16 224.417 1321.76 228.484 1325.88 231.29C1330 234.039 1335.27 235.414 1341.71 235.414C1348.03 235.414 1353.11 234.182 1356.94 231.719C1360.84 229.199 1362.81 225.964 1362.87 222.012C1362.81 218.69 1361.43 215.969 1358.72 213.85C1356.01 211.674 1351.84 210.013 1346.19 208.867L1323.67 204.314C1310.98 201.737 1301.52 197.27 1295.31 190.912C1289.16 184.555 1286.09 176.451 1286.09 166.6C1286.09 158.124 1288.34 150.821 1292.86 144.693C1297.43 138.565 1303.84 133.84 1312.08 130.518C1320.37 127.196 1330.08 125.535 1341.2 125.535C1357.62 125.535 1370.55 129.057 1379.97 136.102C1389.45 143.147 1394.98 152.74 1396.56 164.882Z" fill="white"/>
<path d="M725.439 133.871C724.762 126.941 721.855 121.558 716.719 117.72C711.583 113.883 704.613 111.965 695.809 111.965C689.826 111.965 684.775 112.824 680.655 114.542C676.535 116.203 673.375 118.522 671.173 121.5C669.029 124.479 667.956 127.858 667.956 131.638C667.844 134.788 668.493 137.537 669.904 139.885C671.371 142.233 673.375 144.267 675.914 145.985C678.454 147.646 681.389 149.106 684.719 150.366C688.049 151.569 691.604 152.6 695.386 153.459L710.963 157.239C718.525 158.957 725.467 161.248 731.788 164.112C738.11 166.975 743.584 170.498 748.212 174.679C752.84 178.86 756.424 183.785 758.964 189.455C761.56 195.125 762.886 201.626 762.943 208.957C762.886 219.724 760.177 229.059 754.815 236.963C749.51 244.809 741.835 250.909 731.788 255.262C721.799 259.557 709.749 261.705 695.64 261.705C681.643 261.705 669.452 259.529 659.067 255.176C648.739 250.823 640.668 244.38 634.855 235.846C629.099 227.255 626.079 216.631 625.797 203.974H661.268C661.664 209.873 663.329 214.798 666.263 218.75C669.255 222.645 673.233 225.594 678.2 227.599C683.223 229.546 688.895 230.52 695.216 230.52C701.425 230.52 706.814 229.603 711.386 227.771C716.014 225.938 719.598 223.389 722.137 220.125C724.677 216.86 725.947 213.109 725.947 208.871C725.947 204.919 724.79 201.597 722.476 198.905C720.219 196.213 716.889 193.922 712.486 192.032C708.141 190.142 702.807 188.424 696.486 186.878L677.607 182.067C662.99 178.459 651.448 172.817 642.982 165.143C634.517 157.468 630.312 147.13 630.368 134.129C630.312 123.476 633.106 114.17 638.75 106.209C644.45 98.2476 652.267 92.0335 662.2 87.5662C672.133 83.0989 683.421 80.8652 696.063 80.8652C708.931 80.8652 720.162 83.0989 729.757 87.5662C739.408 92.0335 746.914 98.2476 752.276 106.209C757.637 114.17 760.403 123.391 760.572 133.871H725.439Z" fill="white"/>
<path d="M271.8 35C408.104 35 518.6 145.496 518.6 281.8C518.6 418.104 408.104 528.6 271.8 528.6C135.496 528.6 25 418.104 25 281.8C25 145.496 135.496 35 271.8 35ZM200.43 148.396C183.766 148.456 168.875 151.196 155.721 156.562L153.114 157.674C139.317 163.778 128.568 172.183 120.776 182.861L120.78 182.866C113.124 193.468 109.326 205.868 109.455 220.185V220.216C109.441 237.66 115.248 251.244 126.709 261.294L128.955 263.187C139.685 271.887 153.776 278.572 171.344 283.15L175.16 284.099L175.182 284.103L202.235 290.721C211.403 292.872 219.226 295.289 225.657 297.987C232.226 300.708 237.431 304.104 241.063 308.28L241.765 309.105C245.14 313.277 246.795 318.323 246.816 324.074L246.798 325.296C246.596 330.955 244.836 336.094 241.526 340.636L240.794 341.602C236.791 346.651 231.199 350.501 224.201 353.231C217.677 355.806 210.15 357.154 201.679 357.339L199.972 357.356C190.62 357.389 182.122 356.019 174.529 353.183L174.494 353.165C166.932 350.223 160.772 345.832 156.114 339.969L156.088 339.93C155.222 338.802 154.423 337.619 153.696 336.387L152.99 335.139C148.752 327.229 138.772 320.293 134.827 319.521L128.898 318.484L119.064 318.025C110.232 318.058 103.641 327.766 105.308 335.518L105.705 337.287C107.795 346.052 111.194 353.801 115.878 360.564L117.418 362.668C125.303 373.017 135.929 380.938 149.382 386.408C163.856 392.258 180.955 395.191 200.722 395.121L204.158 395.082C212.106 394.912 219.555 394.25 226.5 393.118L229.892 392.567V408.537H276.587V369.374L277.359 368.545C279.42 366.331 281.308 363.994 283.001 361.534L284.325 359.536C290.717 349.449 293.966 337.654 293.996 324.052L293.956 322.208C293.644 313.079 291.794 305.034 288.472 298.031L288.459 298.013C285.181 290.952 280.659 284.766 274.875 279.448L273.701 278.394C267.698 273.149 260.636 268.655 252.503 264.934L250.862 264.201C241.986 260.322 232.206 257.212 221.528 254.888L221.488 254.879L199.142 249.682C193.633 248.482 188.428 247.032 183.542 245.332L183.502 245.319C178.561 243.517 174.15 241.4 170.298 238.966L170.258 238.944C166.31 236.362 163.126 233.25 160.768 229.604L160.738 229.564C158.66 226.221 157.598 222.421 157.473 218.257V216.554C157.452 210.681 159.159 205.354 162.591 200.676L162.608 200.65L163.292 199.785C166.759 195.542 171.506 192.281 177.388 189.942L178.592 189.47C184.691 187.187 191.924 186.076 200.201 186.046L202.61 186.073C213.736 186.337 223.067 188.734 230.391 193.48L231.926 194.53L232.067 194.632L232.191 194.747L239.475 201.435L239.673 201.616L239.828 201.832L386.714 399.559L386.842 399.462L393.482 408.537H431.891V177.399L431.86 176.217C431.257 164.479 421.736 155.065 409.863 154.467L408.663 154.436C395.837 154.438 385.44 164.719 385.439 177.399V322.675L279.199 182.971L279.15 182.914L279.106 182.848L278.704 182.244C271.316 171.639 260.964 163.318 247.54 157.321C235.057 151.713 220.49 148.722 203.797 148.423L200.43 148.396Z" fill="white"/>
</svg>
